<?xml version="1.0" encoding="UTF-8" standalone="no"?>
<!-- Created with Inkscape (http://www.inkscape.org/) -->

<svg
   width="220mm"
   height="220mm"
   viewBox="0 0 220 220"
   version="1.1"
   id="svg5"
   xml:space="preserve"
   inkscape:version="1.2.2 (b0a8486541, 2022-12-01)"
   sodipodi:docname="belibre_logo.svg"
   xmlns:inkscape="http://www.inkscape.org/namespaces/inkscape"
   xmlns:sodipodi="http://sodipodi.sourceforge.net/DTD/sodipodi-0.dtd"
   xmlns="http://www.w3.org/2000/svg"
   xmlns:svg="http://www.w3.org/2000/svg"><sodipodi:namedview
     id="namedview7"
     pagecolor="#ffffff"
     bordercolor="#000000"
     borderopacity="0.25"
     inkscape:showpageshadow="2"
     inkscape:pageopacity="0.0"
     inkscape:pagecheckerboard="0"
     inkscape:deskcolor="#d1d1d1"
     inkscape:document-units="mm"
     showgrid="false"
     inkscape:zoom="0.5946522"
     inkscape:cx="420.41381"
     inkscape:cy="411.16471"
     inkscape:window-width="1854"
     inkscape:window-height="1131"
     inkscape:window-x="66"
     inkscape:window-y="32"
     inkscape:window-maximized="1"
     inkscape:current-layer="layer2" /><defs
     id="defs2" /><g
     inkscape:groupmode="layer"
     id="layer2"
     inkscape:label="Vector"
     transform="translate(-5.5108456,-5.1860012)"><g
       id="g4456"
       transform="translate(-0.92094004,-16.737827)"
       inkscape:export-filename="belibre.png"
       inkscape:export-xdpi="101.6"
       inkscape:export-ydpi="101.6"><g
         id="g4443"
         transform="matrix(0.83737436,0,0,0.83738123,-206.8446,5.1914138)"><g
           id="g4431"><path
             style="opacity:1;fill:#000000;fill-opacity:1;stroke:none;stroke-width:10.6181;stroke-dasharray:none"
             id="path4361"
             sodipodi:type="arc"
             sodipodi:cx="-385.80032"
             sodipodi:cy="151.34332"
             sodipodi:rx="115.92023"
             sodipodi:ry="115.4798"
             sodipodi:start="4.712389"
             sodipodi:end="1.5707963"
             sodipodi:arc-type="slice"
             d="M -385.80032,35.863525 A 115.92023,115.4798 0 0 1 -269.8801,151.34332 115.92023,115.4798 0 0 1 -385.80032,266.82312 V 151.34332 Z"
             transform="scale(-1,1)" /><path
             style="opacity:1;fill:#ff0000;fill-opacity:1;stroke:none;stroke-width:10.6181;stroke-dasharray:none"
             id="path3584"
             sodipodi:type="arc"
             sodipodi:cx="386.05945"
             sodipodi:cy="151.34332"
             sodipodi:rx="115.92023"
             sodipodi:ry="115.4798"
             sodipodi:start="4.712389"
             sodipodi:end="1.5707963"
             sodipodi:arc-type="slice"
             d="M 386.05945,35.863525 A 115.92023,115.4798 0 0 1 501.97968,151.34332 115.92023,115.4798 0 0 1 386.05945,266.82312 v -115.4798 z" /><path
             id="rect3529"
             style="opacity:1;fill:#ffcc00;stroke-width:10"
             d="m 338.59031,45.125185 47.46913,-10.054167 47.46912,10.054167 v 71.112485 l -17.89845,9.33988 -2.59113,29.88254 20.48958,28.42642 v 74.76296 l -47.46912,8.99583 -47.46913,-10.58333 z"
             sodipodi:nodetypes="ccccccccccc" /><g
             id="g3296"
             transform="translate(279.7049)"
             style="fill:#ffcc00;fill-opacity:1"><path
               style="color:#000000;fill:#ffcc00;fill-opacity:1;-inkscape-stroke:none"
               d="m 44.662109,109.61133 c -6.039241,0.0655 -11.431978,1.56657 -15.77539,4.43945 -5.791216,3.83051 -9.168163,10.78723 -8.140625,18.25781 0.855497,6.21978 4.40846,12.68754 10.46289,19.36133 -5.210935,4.82865 -8.266999,9.99586 -8.917968,15.29102 -0.816582,6.64229 2.353146,12.74122 7.162109,16.6582 8.437614,6.87258 22.021922,8.63981 34.052811,2.35341 1.085997,-7.97061 2.903909,-5.83299 -1.060624,-11.11903 -9.460844,7.09433 -21.173844,5.49473 -26.677734,1.01171 -2.751945,-2.2415 -3.919802,-4.68188 -3.550781,-7.68359 0.369021,-3.00171 2.639441,-7.28376 9.193359,-12.05859 l 4.853516,-3.53711 -4.357422,-4.13282 c -7.524804,-7.13549 -10.678922,-13.3255 -11.253906,-17.50585 -0.574985,-4.18035 0.683449,-6.52508 3.751953,-8.55469 6.137008,-4.05923 21.708891,-4.10284 38.273437,7.3789 L 78.375,121.55273 C 66.588801,113.38311 54.727511,109.50218 44.662109,109.61133 Z"
               id="path3222"
               sodipodi:nodetypes="ssscssccsscccssccs" /></g><path
             id="rect3472"
             style="opacity:1;fill:#000000;stroke-width:7.00605"
             d="m 385.3062,59.382939 c -15.66632,3e-6 -28.47423,12.806372 -28.47423,28.47268 v 28.068051 c -3.41008,5.39029 -5.38882,11.76817 -5.38882,18.59215 0,6.00419 1.53039,11.66372 4.22093,16.60829 -14.87959,12.73327 -21.11641,33.55645 -15.59026,52.96989 4.86746,17.09951 18.05799,30.01559 34.26457,34.35708 l 11.23239,12.14189 11.90987,-11.90986 c 16.0177,-3.95045 29.31465,-16.263 34.66972,-32.92513 1.84148,-5.72983 2.63935,-11.62277 2.47168,-17.42322 10.42685,3.2475 21.21649,1.0858 28.33884,-4.71548 4.80891,-3.91693 7.97635,-10.01617 7.15977,-16.65841 -0.65097,-5.29516 -3.7048,-10.46241 -8.91574,-15.29106 6.05443,-6.67374 9.60743,-13.14136 10.46293,-19.36109 1.02754,-7.47053 -2.34938,-14.42729 -8.14059,-18.2578 -4.34337,-2.87288 -9.73814,-4.37403 -15.77733,-4.43952 -9.01993,-0.0978 -19.48139,3.01955 -30.03899,9.54515 -5.70233,-11.56728 -17.62337,-19.562629 -31.34589,-19.562629 -7.22514,0 -13.95113,2.216349 -19.53318,6.003249 V 87.855619 c 0,-10.261943 8.21238,-18.472772 18.47433,-18.472774 10.26195,-10e-7 18.47277,8.21083 18.47277,18.472774 v 7.271391 h 9.99991 v -7.271391 c 0,-15.666311 -12.80639,-28.472682 -28.47268,-28.47268 z m 1.05885,50.210891 c 13.82297,0 24.92199,11.09896 24.92199,24.92199 0,13.82304 -11.09902,24.91993 -24.92199,24.91993 -13.82303,0 -24.922,-11.09689 -24.922,-24.91993 0,-13.82303 11.09897,-24.92199 24.922,-24.92199 z m -0.98702,6.00015 c -5.69629,6e-5 -10.31404,4.61781 -10.3141,10.3141 0.003,3.80377 2.09936,7.29713 5.45445,9.08936 l -3.66438,13.67617 h 17.04805 l -3.66437,-13.67617 c 3.35509,-1.79223 5.45142,-5.28559 5.45445,-9.08936 -6e-5,-5.69629 -4.61781,-10.31404 -10.3141,-10.3141 z m 62.19258,4.32221 c 4.50978,-0.003 8.13778,0.95413 10.43916,2.47634 3.0685,2.02961 4.32462,4.37417 3.74964,8.55452 -0.57499,4.1803 -3.72722,10.37046 -11.25202,17.5059 l -4.35736,4.13309 4.85345,3.53725 c 6.55387,4.77478 8.82473,9.05647 9.19375,12.05818 0.36902,3.00166 -0.79875,5.44231 -3.55068,7.68376 -4.93274,4.01784 -14.85246,5.71449 -23.66884,0.91726 -2.55603,-9.85943 -8.00155,-18.88121 -15.91376,-25.65476 2.69176,-4.94544 4.223,-10.60624 4.223,-16.61191 0,-1.86884 -0.14975,-3.70386 -0.43512,-5.49475 9.95073,-6.60771 19.47303,-9.09973 26.71878,-9.10488 z m -94.38597,49.48484 h 32.01614 c 0.38771,0.0132 0.77339,0.0346 1.16427,0.0346 0.39087,0 0.77656,-0.0214 1.16427,-0.0346 h 32.00373 c 3.13725,6.43361 5.12245,12.72243 5.30613,19.44429 h -76.95292 c 0.16778,-6.87433 2.01307,-13.56622 5.29838,-19.44429 z m -3.95634,31.07459 h 74.27557 c -0.19897,0.76605 -0.41824,1.52978 -0.6625,2.28978 -1.97843,6.1559 -5.257,11.53005 -9.4356,15.85846 h -54.08042 c -4.49395,-4.65299 -7.93932,-10.50419 -9.84694,-17.20566 -0.0893,-0.31358 -0.16843,-0.62819 -0.25011,-0.94258 z"
             sodipodi:nodetypes="sscscscccscsscssscscsssccssssssscccccccccsscccssccsccccscccccccsccsc" /><g
             id="g3588"
             transform="translate(279.7049)"><path
               style="color:#000000;fill:#000000;-inkscape-stroke:none"
               d="m 77.337594,151.50615 c -6.490804,18.3584 -22.706063,39.18795 -13.831658,34.4664 1.085997,-7.97061 2.903909,-5.83299 -1.060624,-11.11903 -9.460844,7.09433 -21.173844,5.49473 -26.677734,1.01171 -2.751945,-2.2415 -3.919802,-4.68188 -3.550781,-7.68359 0.369021,-3.00171 2.639441,-7.28376 9.193359,-12.05859 l 4.853516,-3.53711 -4.357422,-4.13282 c -7.524804,-7.13549 -10.678922,-13.3255 -11.253906,-17.50585 -0.574985,-4.18035 0.683449,-6.52508 3.751953,-8.55469 6.137008,-4.05923 21.708891,-4.10284 38.273437,7.3789 L 78.375,121.55273 c -1.108749,11.12213 -1.279755,17.48989 -1.037406,29.95342 z"
               id="path3586"
               sodipodi:nodetypes="cccsscccssccc" /></g><path
             style="color:#000000;fill:#000000;-inkscape-stroke:none"
             d="m 386.05859,31.923828 c -65.91244,0 -119.41992,53.507474 -119.41992,119.419922 0,65.91245 53.50748,119.41992 119.41992,119.41992 65.91245,0 119.42188,-53.50747 119.42188,-119.41992 0,-65.912448 -53.50943,-119.419922 -119.42188,-119.419922 z m 0,7 c 62.12937,0 112.42188,50.290551 112.42188,112.419922 0,62.12937 -50.29251,112.41992 -112.42188,112.41992 -62.12937,0 -112.41992,-50.29055 -112.41992,-112.41992 0,-62.129371 50.29055,-112.419922 112.41992,-112.419922 z"
             id="path2655" /></g></g></g></g></svg>
